<mxfile host="app.diagrams.net" agent="Mozilla/5.0 (Macintosh; Intel Mac OS X 10_15_7) AppleWebKit/537.36 (KHTML, like Gecko) Chrome/131.0.0.0 Safari/537.36" version="24.8.9">
  <diagram name="Page-1" id="6VNc_-m6TeKIfeXo8GLN">
    <mxGraphModel dx="1434" dy="761" grid="1" gridSize="10" guides="1" tooltips="1" connect="1" arrows="1" fold="1" page="1" pageScale="1" pageWidth="850" pageHeight="1100" math="0" shadow="0">
      <root>
        <mxCell id="0" />
        <mxCell id="1" parent="0" />
        <mxCell id="weBzptJLFJF-nvbT98Se-26" value="Assignment 3 | CS 6310 FALL 2024&lt;div&gt;Activity Diagram Skill Point System&amp;nbsp;&lt;/div&gt;&lt;div&gt;Group 55&lt;/div&gt;" style="rounded=1;whiteSpace=wrap;html=1;fillColor=#f5f5f5;fontColor=#333333;strokeColor=#666666;labelBackgroundColor=default;" vertex="1" parent="1">
          <mxGeometry x="305" y="30" width="240" height="70" as="geometry" />
        </mxCell>
        <mxCell id="weBzptJLFJF-nvbT98Se-27" value="" style="ellipse;html=1;shape=startState;fillColor=#000000;strokeColor=#ff0000;" vertex="1" parent="1">
          <mxGeometry x="395" y="130" width="30" height="30" as="geometry" />
        </mxCell>
        <mxCell id="weBzptJLFJF-nvbT98Se-28" value="" style="edgeStyle=orthogonalEdgeStyle;html=1;verticalAlign=bottom;endArrow=open;endSize=8;strokeColor=#ff0000;rounded=0;" edge="1" source="weBzptJLFJF-nvbT98Se-27" parent="1" target="weBzptJLFJF-nvbT98Se-29">
          <mxGeometry relative="1" as="geometry">
            <mxPoint x="410" y="220" as="targetPoint" />
          </mxGeometry>
        </mxCell>
        <mxCell id="weBzptJLFJF-nvbT98Se-29" value="Battle" style="rounded=1;whiteSpace=wrap;html=1;arcSize=40;fontColor=#000000;fillColor=#ffffc0;strokeColor=#ff0000;" vertex="1" parent="1">
          <mxGeometry x="350" y="220" width="120" height="40" as="geometry" />
        </mxCell>
        <mxCell id="weBzptJLFJF-nvbT98Se-30" value="" style="edgeStyle=orthogonalEdgeStyle;html=1;verticalAlign=bottom;endArrow=open;endSize=8;strokeColor=#ff0000;rounded=0;" edge="1" source="weBzptJLFJF-nvbT98Se-29" parent="1" target="weBzptJLFJF-nvbT98Se-31">
          <mxGeometry relative="1" as="geometry">
            <mxPoint x="410" y="310" as="targetPoint" />
          </mxGeometry>
        </mxCell>
        <mxCell id="weBzptJLFJF-nvbT98Se-31" value="Check Current SP" style="rhombus;whiteSpace=wrap;html=1;fontColor=#000000;fillColor=#ffffc0;strokeColor=#ff0000;" vertex="1" parent="1">
          <mxGeometry x="355" y="310" width="110" height="80" as="geometry" />
        </mxCell>
        <mxCell id="weBzptJLFJF-nvbT98Se-32" value="&lt;span style=&quot;font-size: 12px; text-align: center; text-wrap-mode: wrap; background-color: rgb(251, 251, 251);&quot;&gt;insufficient SP&lt;/span&gt;" style="edgeStyle=orthogonalEdgeStyle;html=1;align=left;verticalAlign=bottom;endArrow=open;endSize=8;strokeColor=#ff0000;rounded=0;" edge="1" parent="1">
          <mxGeometry x="-1" relative="1" as="geometry">
            <mxPoint x="580" y="349.5" as="targetPoint" />
            <mxPoint x="465" y="349.5" as="sourcePoint" />
          </mxGeometry>
        </mxCell>
        <mxCell id="weBzptJLFJF-nvbT98Se-33" value="&lt;span style=&quot;font-size: 12px; text-align: center; text-wrap-mode: wrap; background-color: rgb(251, 251, 251);&quot;&gt;Sufficient SP&lt;/span&gt;" style="edgeStyle=orthogonalEdgeStyle;html=1;align=left;verticalAlign=top;endArrow=open;endSize=8;strokeColor=#ff0000;rounded=0;" edge="1" source="weBzptJLFJF-nvbT98Se-31" parent="1" target="weBzptJLFJF-nvbT98Se-34">
          <mxGeometry x="-0.1" y="-40" relative="1" as="geometry">
            <mxPoint x="255" y="350" as="targetPoint" />
            <mxPoint as="offset" />
          </mxGeometry>
        </mxCell>
        <mxCell id="weBzptJLFJF-nvbT98Se-34" value="Select Move" style="rounded=1;whiteSpace=wrap;html=1;arcSize=40;fontColor=#000000;fillColor=#ffffc0;strokeColor=#ff0000;" vertex="1" parent="1">
          <mxGeometry x="150" y="330" width="120" height="40" as="geometry" />
        </mxCell>
        <mxCell id="weBzptJLFJF-nvbT98Se-35" value="" style="edgeStyle=orthogonalEdgeStyle;html=1;verticalAlign=bottom;endArrow=open;endSize=8;strokeColor=#ff0000;rounded=0;" edge="1" source="weBzptJLFJF-nvbT98Se-34" parent="1" target="weBzptJLFJF-nvbT98Se-36">
          <mxGeometry relative="1" as="geometry">
            <mxPoint x="210" y="420" as="targetPoint" />
          </mxGeometry>
        </mxCell>
        <mxCell id="weBzptJLFJF-nvbT98Se-36" value="Execute Move" style="rounded=1;whiteSpace=wrap;html=1;arcSize=40;fontColor=#000000;fillColor=#ffffc0;strokeColor=#ff0000;" vertex="1" parent="1">
          <mxGeometry x="150" y="420" width="120" height="40" as="geometry" />
        </mxCell>
        <mxCell id="weBzptJLFJF-nvbT98Se-37" value="" style="edgeStyle=orthogonalEdgeStyle;html=1;verticalAlign=bottom;endArrow=open;endSize=8;strokeColor=#ff0000;rounded=0;" edge="1" source="weBzptJLFJF-nvbT98Se-36" parent="1" target="weBzptJLFJF-nvbT98Se-38">
          <mxGeometry relative="1" as="geometry">
            <mxPoint x="100" y="520" as="targetPoint" />
          </mxGeometry>
        </mxCell>
        <mxCell id="weBzptJLFJF-nvbT98Se-38" value="Deduct SP" style="rounded=1;whiteSpace=wrap;html=1;arcSize=40;fontColor=#000000;fillColor=#ffffc0;strokeColor=#ff0000;" vertex="1" parent="1">
          <mxGeometry x="150" y="510" width="120" height="40" as="geometry" />
        </mxCell>
        <mxCell id="weBzptJLFJF-nvbT98Se-39" value="" style="edgeStyle=orthogonalEdgeStyle;html=1;verticalAlign=bottom;endArrow=open;endSize=8;strokeColor=#ff0000;rounded=0;" edge="1" source="weBzptJLFJF-nvbT98Se-38" parent="1" target="weBzptJLFJF-nvbT98Se-40">
          <mxGeometry relative="1" as="geometry">
            <mxPoint x="130" y="690" as="targetPoint" />
          </mxGeometry>
        </mxCell>
        <mxCell id="weBzptJLFJF-nvbT98Se-40" value="Restore SP&lt;div&gt;&lt;br&gt;&lt;/div&gt;" style="rounded=1;whiteSpace=wrap;html=1;arcSize=40;fontColor=#000000;fillColor=#ffffc0;strokeColor=#ff0000;" vertex="1" parent="1">
          <mxGeometry x="345" y="510" width="120" height="40" as="geometry" />
        </mxCell>
        <mxCell id="weBzptJLFJF-nvbT98Se-41" value="" style="edgeStyle=orthogonalEdgeStyle;html=1;verticalAlign=bottom;endArrow=open;endSize=8;strokeColor=#ff0000;rounded=0;" edge="1" source="weBzptJLFJF-nvbT98Se-40" parent="1" target="weBzptJLFJF-nvbT98Se-44">
          <mxGeometry relative="1" as="geometry">
            <mxPoint x="405" y="610" as="targetPoint" />
          </mxGeometry>
        </mxCell>
        <mxCell id="weBzptJLFJF-nvbT98Se-42" value="Display&lt;br&gt;&quot;not enough SP&quot;" style="rounded=1;whiteSpace=wrap;html=1;arcSize=40;fontColor=#000000;fillColor=#ffffc0;strokeColor=#ff0000;" vertex="1" parent="1">
          <mxGeometry x="580" y="330" width="120" height="40" as="geometry" />
        </mxCell>
        <mxCell id="weBzptJLFJF-nvbT98Se-43" value="" style="edgeStyle=orthogonalEdgeStyle;html=1;verticalAlign=bottom;endArrow=open;endSize=8;strokeColor=#ff0000;rounded=0;" edge="1" source="weBzptJLFJF-nvbT98Se-42" parent="1" target="weBzptJLFJF-nvbT98Se-40">
          <mxGeometry relative="1" as="geometry">
            <mxPoint x="730" y="560" as="targetPoint" />
            <Array as="points">
              <mxPoint x="640" y="530" />
            </Array>
          </mxGeometry>
        </mxCell>
        <mxCell id="weBzptJLFJF-nvbT98Se-44" value="" style="ellipse;html=1;shape=endState;fillColor=#000000;strokeColor=#ff0000;" vertex="1" parent="1">
          <mxGeometry x="390" y="610" width="30" height="30" as="geometry" />
        </mxCell>
      </root>
    </mxGraphModel>
  </diagram>
</mxfile>
